<?xml version="1.0" encoding="UTF-8" standalone="no"?>
<!DOCTYPE svg PUBLIC "-//W3C//DTD SVG 1.1//EN" "http://www.w3.org/Graphics/SVG/1.1/DTD/svg11.dtd">
<svg version="1.1" xmlns="http://www.w3.org/2000/svg" xmlns:xlink="http://www.w3.org/1999/xlink" preserveAspectRatio="xMidYMid meet" viewBox="0 0 435 330" width="435" height="330"><defs><path d="M428.6 78.67C421.44 59.87 379.2 56.93 320.55 67.8C283.84 74.61 240.68 86.84 195.67 103.98C144.11 123.62 98.67 146.46 64.98 168.48C61.23 170.92 57.63 173.36 54.19 175.78C18.32 200.97 -1 224.47 4.94 240.05C16.58 270.62 120.95 259.27 237.86 214.74C354.77 170.2 440.24 109.23 428.6 78.67Z" id="f3Dwbm4Pdi"></path><path d="M385.03 164.48C385.03 251.97 314 322.99 226.52 322.99C139.03 322.99 68.01 251.97 68.01 164.48C68.01 77 139.03 5.97 226.52 5.97C314 5.97 385.03 77 385.03 164.48Z" id="g1vLdVnZMW"></path><path d="M383.51 141.08C383.51 141.08 383.51 141.08 383.51 141.08C299.07 194.39 205.67 231.95 107.82 251.93C106.58 252.18 103.48 252.81 98.51 253.83" id="c1UH0lhdiC"></path></defs><g><g><g><use xlink:href="#f3Dwbm4Pdi" opacity="1" fill="#4c340c" fill-opacity="0"></use><g><use xlink:href="#f3Dwbm4Pdi" opacity="1" fill-opacity="0" stroke="#99e0d1" stroke-width="3" stroke-opacity="1"></use></g></g><g><use xlink:href="#g1vLdVnZMW" opacity="1" fill="#282828" fill-opacity="1"></use><g><use xlink:href="#g1vLdVnZMW" opacity="1" fill-opacity="0" stroke="#99e0d1" stroke-width="8" stroke-opacity="1"></use></g></g><g><g><use xlink:href="#c1UH0lhdiC" opacity="1" fill-opacity="0" stroke="#99e0d1" stroke-width="3" stroke-opacity="1"></use></g></g></g></g></svg>